<mxfile host="app.diagrams.net" modified="2022-10-04T12:44:40.958Z" agent="5.0 (Windows NT 10.0; Win64; x64) AppleWebKit/537.36 (KHTML, like Gecko) Chrome/105.0.0.0 Safari/537.36 Edg/105.0.1343.53" etag="VupCxtHIncT2CXrLbTfI" version="20.4.0" type="github">
  <diagram id="YuhDfRG-aHKXsnGCYFpr" name="Страница 1">
    <mxGraphModel dx="781" dy="468" grid="1" gridSize="10" guides="1" tooltips="1" connect="1" arrows="1" fold="1" page="1" pageScale="1" pageWidth="827" pageHeight="1169" math="0" shadow="0">
      <root>
        <mxCell id="0" />
        <mxCell id="1" parent="0" />
        <mxCell id="5A8IAC25DSSV2MfoOxgL-1" value="" style="endArrow=none;html=1;rounded=0;" parent="1" edge="1">
          <mxGeometry width="50" height="50" relative="1" as="geometry">
            <mxPoint x="520" y="510" as="sourcePoint" />
            <mxPoint x="520" y="40" as="targetPoint" />
          </mxGeometry>
        </mxCell>
        <mxCell id="5A8IAC25DSSV2MfoOxgL-2" value="" style="endArrow=none;html=1;rounded=0;" parent="1" edge="1">
          <mxGeometry width="50" height="50" relative="1" as="geometry">
            <mxPoint x="280" y="520" as="sourcePoint" />
            <mxPoint x="280" y="40" as="targetPoint" />
          </mxGeometry>
        </mxCell>
        <mxCell id="P4SiUCAKyMKpFeeTMHMd-1" value="&lt;b&gt;&lt;u&gt;SOURCE LAYER&lt;/u&gt;&lt;/b&gt;" style="text;html=1;resizable=0;autosize=1;align=center;verticalAlign=middle;points=[];fillColor=none;strokeColor=none;rounded=0;" vertex="1" parent="1">
          <mxGeometry x="60" y="40" width="120" height="30" as="geometry" />
        </mxCell>
        <mxCell id="P4SiUCAKyMKpFeeTMHMd-2" value="&lt;b&gt;&lt;u&gt;STORAGE LAYER&lt;/u&gt;&lt;/b&gt;" style="text;html=1;resizable=0;autosize=1;align=center;verticalAlign=middle;points=[];fillColor=none;strokeColor=none;rounded=0;" vertex="1" parent="1">
          <mxGeometry x="335" y="40" width="130" height="30" as="geometry" />
        </mxCell>
        <mxCell id="P4SiUCAKyMKpFeeTMHMd-3" value="&lt;b&gt;&lt;u&gt;BUSINESS LAYER&lt;/u&gt;&lt;/b&gt;" style="text;html=1;resizable=0;autosize=1;align=center;verticalAlign=middle;points=[];fillColor=none;strokeColor=none;rounded=0;" vertex="1" parent="1">
          <mxGeometry x="620" y="40" width="130" height="30" as="geometry" />
        </mxCell>
        <mxCell id="P4SiUCAKyMKpFeeTMHMd-11" style="edgeStyle=orthogonalEdgeStyle;rounded=0;orthogonalLoop=1;jettySize=auto;html=1;" edge="1" parent="1" source="P4SiUCAKyMKpFeeTMHMd-4" target="P4SiUCAKyMKpFeeTMHMd-10">
          <mxGeometry relative="1" as="geometry" />
        </mxCell>
        <mxCell id="P4SiUCAKyMKpFeeTMHMd-30" value="data preprocessing in Python" style="edgeLabel;html=1;align=center;verticalAlign=middle;resizable=0;points=[];fontSize=14;" vertex="1" connectable="0" parent="P4SiUCAKyMKpFeeTMHMd-11">
          <mxGeometry x="-0.2055" y="-2" relative="1" as="geometry">
            <mxPoint as="offset" />
          </mxGeometry>
        </mxCell>
        <mxCell id="P4SiUCAKyMKpFeeTMHMd-4" value="" style="shape=mxgraph.gcp2.doubleRect;strokeColor=#dddddd;shadow=1;strokeWidth=1;rounded=1;absoluteArcSize=1;arcSize=2;" vertex="1" parent="1">
          <mxGeometry x="41" y="80" width="158" height="68" as="geometry" />
        </mxCell>
        <mxCell id="P4SiUCAKyMKpFeeTMHMd-5" value="&lt;font color=&quot;#000000&quot;&gt;Marketing&lt;/font&gt;&lt;br&gt;Data Catalogs&lt;br&gt;(Excel, cvs etc.)" style="editableCssRules=.*;html=1;fontColor=#999999;shape=image;verticalLabelPosition=middle;labelBackgroundColor=#ffffff;verticalAlign=middle;labelPosition=right;align=left;spacingLeft=20;part=1;points=[];imageAspect=0;image=data:image/svg+xml,PHN2ZyB4bWxucz0iaHR0cDovL3d3dy53My5vcmcvMjAwMC9zdmciIHhtbG5zOnY9Imh0dHBzOi8vdmVjdGEuaW8vbmFubyIgd2lkdGg9IjM3Ni4yNzQ4ODc3NTcyNjMyIiBoZWlnaHQ9IjMzOS42NzM1NDQyMTc3NjM4MyIgdmlld0JveD0iMC4xMTQwMDAwMDAwNTk2MDQ2NCAtMC4wOTAwMDAwMDM1NzYyNzg2OSA5OS41NTU5OTk3NTU4NTkzOCA4OS44NzE5OTQwMTg1NTQ2OSI+JiN4YTs8c3R5bGUgdHlwZT0idGV4dC9jc3MiPiYjeGE7CS5zdDB7ZmlsbDojNDI4NWY0O30mI3hhOwkuc3Qxe2ZpbGw6I2FlY2JmYTt9JiN4YTs8L3N0eWxlPiYjeGE7CTxwYXRoIGNsYXNzPSJzdDAiIGQ9Ik03Ny41MjMgNDMuMzk3bDEyLjg0NCA3LjU3MnYxNC43NjdsLTEyLjg0NCA2LjY4ek01MC4zMTItLjA5bDEyLjg0NCA3LjU3MnYxNC43NjdsLTEyLjg0NCA2LjY4ek0yMy4xIDQzLjM5N2wxMi44NDQgNy41NzJ2MTQuNzY3TDIzLjEgNzIuNDE3em02OS40Ny0uNTExbDcuMS0xMS4xNjktMTIuNjY2LTIxLjU5NEg3MC42NDR2OS41aDEwLjkxOWw2Ljk3NyAxMS44OTUtNC4yNTYgNi42OTR6bS03Ni45NzktNC42TDExLjMgMzEuNDg1bDcuMjY0LTExLjg2MWg5Ljk3OWwuMDk5LTkuNUgxMy4yNDFMLjExNCAzMS41NjFsMS41NzYgMi40OTggNS41MTUgOC43Mzl6bTEzLjY2MiAzOS40NDlsNy42MDMgMTIuMDQ3aDI1LjkwMmw3LjczMy0xMi4xNjQtOC4xNDMtNC44OTktNC44MDggNy41NjRINDIuMDk1bC00Ljc0LTcuNTExeiIvPiYjeGE7CTxwYXRoIGNsYXNzPSJzdDEiIGQ9Ik03Ny41MjMgNDMuMzk3bC0xMi44NDQgNy41NzJ2MTQuNzY3bDEyLjg0NCA2LjY4ek01MC4zMTItLjA5TDM3LjQ2OCA3LjQ4MnYxNC43NjdsMTIuODQ0IDYuNjh6TTIzLjEgNDMuMzk3bC0xMi44NDQgNy41NzJ2MTQuNzY3bDEyLjg0NCA2LjY4eiIvPiYjeGE7PC9zdmc+;" vertex="1" parent="P4SiUCAKyMKpFeeTMHMd-4">
          <mxGeometry width="30" height="27" relative="1" as="geometry">
            <mxPoint x="15" y="16" as="offset" />
          </mxGeometry>
        </mxCell>
        <mxCell id="P4SiUCAKyMKpFeeTMHMd-14" style="edgeStyle=orthogonalEdgeStyle;rounded=0;orthogonalLoop=1;jettySize=auto;html=1;" edge="1" parent="1" source="P4SiUCAKyMKpFeeTMHMd-6" target="P4SiUCAKyMKpFeeTMHMd-10">
          <mxGeometry relative="1" as="geometry" />
        </mxCell>
        <mxCell id="P4SiUCAKyMKpFeeTMHMd-31" value="SQL procedures" style="edgeLabel;html=1;align=center;verticalAlign=middle;resizable=0;points=[];fontSize=14;" vertex="1" connectable="0" parent="P4SiUCAKyMKpFeeTMHMd-14">
          <mxGeometry x="-0.4331" y="-3" relative="1" as="geometry">
            <mxPoint as="offset" />
          </mxGeometry>
        </mxCell>
        <mxCell id="P4SiUCAKyMKpFeeTMHMd-6" value="OLTP Databases" style="shape=image;html=1;verticalAlign=top;verticalLabelPosition=bottom;labelBackgroundColor=#ffffff;imageAspect=0;aspect=fixed;image=https://cdn1.iconfinder.com/data/icons/unicons-line-vol-2/24/database-128.png" vertex="1" parent="1">
          <mxGeometry x="67" y="420" width="90" height="90" as="geometry" />
        </mxCell>
        <mxCell id="P4SiUCAKyMKpFeeTMHMd-12" style="edgeStyle=orthogonalEdgeStyle;rounded=0;orthogonalLoop=1;jettySize=auto;html=1;" edge="1" parent="1" source="P4SiUCAKyMKpFeeTMHMd-7" target="P4SiUCAKyMKpFeeTMHMd-10">
          <mxGeometry relative="1" as="geometry" />
        </mxCell>
        <mxCell id="P4SiUCAKyMKpFeeTMHMd-29" value="web scrapping" style="edgeLabel;html=1;align=center;verticalAlign=middle;resizable=0;points=[];fontSize=14;" vertex="1" connectable="0" parent="P4SiUCAKyMKpFeeTMHMd-12">
          <mxGeometry x="-0.2875" y="1" relative="1" as="geometry">
            <mxPoint as="offset" />
          </mxGeometry>
        </mxCell>
        <mxCell id="P4SiUCAKyMKpFeeTMHMd-7" value="Web sites, API" style="shape=image;html=1;verticalAlign=top;verticalLabelPosition=bottom;labelBackgroundColor=#ffffff;imageAspect=0;aspect=fixed;image=https://cdn1.iconfinder.com/data/icons/seo-and-web-development-6/32/development_website_bookmark_favorite_site-128.png" vertex="1" parent="1">
          <mxGeometry x="60" y="180" width="90" height="90" as="geometry" />
        </mxCell>
        <mxCell id="P4SiUCAKyMKpFeeTMHMd-13" style="edgeStyle=orthogonalEdgeStyle;rounded=0;orthogonalLoop=1;jettySize=auto;html=1;entryX=-0.009;entryY=0.596;entryDx=0;entryDy=0;entryPerimeter=0;" edge="1" parent="1" source="P4SiUCAKyMKpFeeTMHMd-9" target="P4SiUCAKyMKpFeeTMHMd-10">
          <mxGeometry relative="1" as="geometry" />
        </mxCell>
        <mxCell id="P4SiUCAKyMKpFeeTMHMd-9" value="" style="sketch=0;outlineConnect=0;fontColor=#232F3E;gradientColor=none;fillColor=#067F68;strokeColor=none;dashed=0;verticalLabelPosition=bottom;verticalAlign=top;align=center;html=1;fontSize=12;fontStyle=0;aspect=fixed;shape=mxgraph.aws4.transfer_for_ftp_resource;" vertex="1" parent="1">
          <mxGeometry x="74" y="310" width="76" height="78" as="geometry" />
        </mxCell>
        <mxCell id="P4SiUCAKyMKpFeeTMHMd-10" value="DWH &lt;br&gt;(Staging) -&amp;gt;ETL -&amp;gt; Business layers (AGG, DIC)" style="shape=datastore;whiteSpace=wrap;html=1;" vertex="1" parent="1">
          <mxGeometry x="324" y="238" width="180" height="150" as="geometry" />
        </mxCell>
        <mxCell id="P4SiUCAKyMKpFeeTMHMd-15" value="ETL" style="text;html=1;resizable=0;autosize=1;align=center;verticalAlign=middle;points=[];fillColor=none;strokeColor=none;rounded=0;fontSize=30;" vertex="1" parent="1">
          <mxGeometry x="360" y="470" width="80" height="50" as="geometry" />
        </mxCell>
        <mxCell id="P4SiUCAKyMKpFeeTMHMd-18" value="Python + MS SQL Stored Procedures" style="text;html=1;resizable=0;autosize=1;align=center;verticalAlign=middle;points=[];fillColor=none;strokeColor=none;rounded=0;fontSize=14;" vertex="1" parent="1">
          <mxGeometry x="270" y="510" width="260" height="30" as="geometry" />
        </mxCell>
        <mxCell id="P4SiUCAKyMKpFeeTMHMd-23" style="edgeStyle=orthogonalEdgeStyle;rounded=0;orthogonalLoop=1;jettySize=auto;html=1;entryX=1;entryY=0.5;entryDx=0;entryDy=0;fontSize=14;" edge="1" parent="1" source="P4SiUCAKyMKpFeeTMHMd-22" target="P4SiUCAKyMKpFeeTMHMd-10">
          <mxGeometry relative="1" as="geometry" />
        </mxCell>
        <mxCell id="P4SiUCAKyMKpFeeTMHMd-26" value="Views" style="edgeLabel;html=1;align=center;verticalAlign=middle;resizable=0;points=[];fontSize=14;" vertex="1" connectable="0" parent="P4SiUCAKyMKpFeeTMHMd-23">
          <mxGeometry x="-0.1018" relative="1" as="geometry">
            <mxPoint as="offset" />
          </mxGeometry>
        </mxCell>
        <mxCell id="P4SiUCAKyMKpFeeTMHMd-22" value="&lt;span style=&quot;background-color: rgb(248, 249, 250);&quot;&gt;Power BI/Tableu&lt;/span&gt;" style="image;html=1;image=img/lib/clip_art/finance/Pie_Chart_128x128.png;fontSize=14;" vertex="1" parent="1">
          <mxGeometry x="580" y="110" width="80" height="80" as="geometry" />
        </mxCell>
        <mxCell id="P4SiUCAKyMKpFeeTMHMd-35" style="edgeStyle=orthogonalEdgeStyle;rounded=0;orthogonalLoop=1;jettySize=auto;html=1;fontSize=14;" edge="1" parent="1" source="P4SiUCAKyMKpFeeTMHMd-32" target="P4SiUCAKyMKpFeeTMHMd-10">
          <mxGeometry relative="1" as="geometry" />
        </mxCell>
        <mxCell id="P4SiUCAKyMKpFeeTMHMd-32" value="Excel" style="sketch=0;pointerEvents=1;shadow=0;dashed=0;html=1;strokeColor=none;fillColor=#505050;labelPosition=center;verticalLabelPosition=bottom;verticalAlign=top;outlineConnect=0;align=center;shape=mxgraph.office.services.excel_services;fontSize=14;" vertex="1" parent="1">
          <mxGeometry x="590" y="260" width="60" height="50" as="geometry" />
        </mxCell>
        <mxCell id="P4SiUCAKyMKpFeeTMHMd-34" style="edgeStyle=orthogonalEdgeStyle;rounded=0;orthogonalLoop=1;jettySize=auto;html=1;fontSize=14;" edge="1" parent="1" source="P4SiUCAKyMKpFeeTMHMd-33" target="P4SiUCAKyMKpFeeTMHMd-10">
          <mxGeometry relative="1" as="geometry" />
        </mxCell>
        <mxCell id="P4SiUCAKyMKpFeeTMHMd-36" value="Analyst" style="edgeLabel;html=1;align=center;verticalAlign=middle;resizable=0;points=[];fontSize=14;" vertex="1" connectable="0" parent="P4SiUCAKyMKpFeeTMHMd-34">
          <mxGeometry x="-0.1285" relative="1" as="geometry">
            <mxPoint as="offset" />
          </mxGeometry>
        </mxCell>
        <mxCell id="P4SiUCAKyMKpFeeTMHMd-33" value="" style="sketch=0;outlineConnect=0;fontColor=#232F3E;gradientColor=none;fillColor=#2E27AD;strokeColor=none;dashed=0;verticalLabelPosition=bottom;verticalAlign=top;align=center;html=1;fontSize=12;fontStyle=0;aspect=fixed;pointerEvents=1;shape=mxgraph.aws4.rds_sql_server_instance;" vertex="1" parent="1">
          <mxGeometry x="590" y="400" width="78" height="78" as="geometry" />
        </mxCell>
      </root>
    </mxGraphModel>
  </diagram>
</mxfile>
